<?xml version="1.0" standalone="no"?>
<!DOCTYPE svg PUBLIC "-//W3C//DTD SVG 20010904//EN"
 "http://www.w3.org/TR/2001/REC-SVG-20010904/DTD/svg10.dtd">
<svg version="1.0" xmlns="http://www.w3.org/2000/svg"
 width="412.000000pt" height="412.000000pt" viewBox="0 0 412.000000 412.000000"
 preserveAspectRatio="xMidYMid meet">
<metadata>
Created by potrace 1.11, written by Peter Selinger 2001-2013
</metadata>
<g transform="translate(0.000000,412.000000) scale(0.100000,-0.100000)"
fill="#000000" stroke="none">
<path d="M1929 4106 c-2 -2 -40 -7 -84 -11 -44 -4 -82 -8 -85 -10 -3 -2 -24
-6 -46 -9 -231 -35 -523 -150 -743 -292 -137 -90 -223 -160 -350 -285 -297
-294 -504 -711 -567 -1139 -18 -121 -23 -373 -11 -495 81 -803 632 -1487 1399
-1739 59 -19 147 -44 183 -51 79 -15 196 -34 250 -40 63 -7 352 -7 395 -1 14
2 46 7 71 10 42 5 160 28 239 46 202 46 516 192 671 312 20 15 39 28 41 28 20
0 154 -230 198 -339 l27 -66 266 -1 c187 -1 264 2 262 10 -72 239 -147 406
-259 580 -277 430 -721 747 -1216 871 -52 13 -115 27 -140 30 -24 4 -47 8 -50
10 -3 2 -51 6 -105 10 -236 13 -273 17 -330 31 -170 44 -303 169 -361 340 -91
273 60 568 336 655 75 24 210 28 280 9 229 -62 389 -270 390 -504 0 -64 -23
-173 -47 -219 -8 -16 -12 -31 -9 -35 3 -3 32 -11 64 -18 85 -18 247 -69 332
-103 41 -17 78 -31 82 -31 11 0 57 151 73 240 70 387 -106 795 -438 1019 -166
111 -344 169 -542 174 -578 17 -1056 -444 -1058 -1018 -1 -474 313 -884 768
-1001 70 -18 147 -26 370 -40 201 -12 426 -76 600 -172 33 -18 75 -40 93 -49
17 -9 32 -20 32 -24 0 -11 -105 -73 -195 -114 -76 -36 -227 -89 -283 -100
-169 -35 -418 -52 -517 -34 -22 4 -62 10 -90 13 -111 13 -298 72 -426 136 -68
34 -206 116 -219 130 -3 3 -23 18 -45 35 -60 44 -160 140 -240 229 -28 31 -97
130 -137 196 -87 145 -150 304 -182 462 -8 40 -18 87 -21 103 -11 53 -14 328
-4 405 83 663 562 1180 1224 1322 143 30 407 34 560 7 176 -32 391 -112 537
-201 300 -184 542 -488 653 -822 19 -55 36 -113 39 -128 4 -16 8 -40 11 -55 3
-16 8 -35 10 -43 17 -64 25 -329 12 -435 -17 -138 -53 -280 -103 -404 -27 -68
-32 -88 -22 -97 7 -6 47 -39 88 -73 41 -34 123 -109 181 -167 l105 -104 62
127 c50 106 121 291 137 362 21 89 46 216 51 261 3 30 7 66 10 80 5 30 5 308
0 365 -16 177 -58 362 -126 549 -59 164 -202 412 -320 556 -135 166 -344 349
-525 460 -91 56 -290 151 -385 183 -64 22 -94 31 -175 53 -39 10 -167 36 -200
40 -22 3 -51 7 -65 10 -28 7 -375 15 -381 10z"/>
</g>
</svg>
